<svg xmlns="http://www.w3.org/2000/svg" style="display: none;">
    <symbol id="logo" viewBox="0 0 72 32">
        <path d="M55.8025 4.07694L56.8179 4.03607C57.2329 4.00743 57.6496 3.98856 58.0681 3.97948C59.73 3.94245 61.4902 4.06785 63.3485 4.35568C63.7725 4.42135 64.0366 4.50763 64.1407 4.61451C64.4823 4.96452 64.3272 5.58279 63.8986 5.81123C63.8155 5.85594 63.6398 5.85315 63.3715 5.80285C60.6354 5.29042 57.8302 5.28832 55.0176 5.52515C54.9805 5.52827 54.9453 5.54317 54.9172 5.56767C54.8891 5.59217 54.8696 5.62501 54.8615 5.66138C54.0818 9.05347 53.3514 12.3774 52.8746 15.7915C52.8208 16.1765 52.8009 16.7162 52.8149 17.4106C52.8219 17.7263 52.9553 17.887 53.2152 17.8926C53.503 17.8703 53.7294 17.7728 53.8942 17.6002C54.5617 17.0972 55.0731 16.3365 55.4913 15.7224C55.5118 15.693 55.5234 15.6588 55.5248 15.6239C55.6009 13.9556 56.0508 12.3998 56.8745 10.9565C57.5462 9.77968 58.7209 8.75796 60.1387 8.92563C61.1594 9.04614 61.8227 9.83102 62.0103 10.8286C62.1633 11.6429 61.9694 12.5514 61.5492 13.3185C60.582 15.0894 58.9022 15.9519 56.9175 16.2013C56.9079 16.2025 56.8991 16.207 56.8924 16.214C56.8857 16.2211 56.8816 16.2303 56.8808 16.2401C56.8472 16.6788 56.9126 17.1234 57.0767 17.574C57.8218 19.6154 59.9029 18.6555 60.9739 17.5646C62.5604 15.9477 63.5633 13.7492 64.3681 11.5622C64.7202 10.6033 64.5724 9.2903 65.503 8.62383C65.8949 8.34404 66.3392 8.28011 66.7228 8.60497C66.9826 8.82573 67.0633 9.11495 66.9648 9.47264C66.8506 9.88656 66.6442 9.97249 66.2229 10.0899C66.2085 10.0941 66.1952 10.1016 66.1839 10.1117C66.1727 10.1219 66.1638 10.1344 66.1579 10.1485C65.9798 10.5929 65.9529 11.0959 66.0772 11.6575C66.1939 12.1843 66.4342 13.2297 66.7982 14.7939C67.0176 15.7343 67.0514 16.6781 66.8999 17.6254C66.8986 17.633 66.8998 17.6408 66.9032 17.6478C66.9065 17.6548 66.9119 17.6605 66.9187 17.6643C66.9254 17.6681 66.9332 17.6697 66.9409 17.6689C66.9485 17.6681 66.9558 17.665 66.9617 17.66L67.5034 17.1916L68.041 16.7085C68.5524 16.1978 69.0135 15.6627 69.4243 15.1031C69.5912 14.8753 69.7243 14.7433 69.8235 14.707C70.0624 14.6189 70.3339 14.6472 70.5382 14.8285C70.8777 15.1296 70.876 15.4925 70.533 15.9173C69.6227 17.0455 68.6722 17.9988 67.6816 18.777C67.3002 19.076 66.808 19.3957 66.2051 19.7359C65.5191 20.1229 64.7984 20.3276 64.0432 20.35C63.4858 20.366 63.0034 20.2445 62.5961 19.9853C62.3229 19.7485 62.1902 19.4816 62.1979 19.1847C62.2901 18.9234 62.4854 18.6939 62.7837 18.4962L63.6597 18.8577C64.5012 19.0275 65.0566 18.711 65.4034 17.9398C65.7021 17.2775 65.7 16.6058 65.5711 15.8628L65.3207 14.6556L65.0775 13.6046C65.0758 13.5974 65.0718 13.5909 65.0661 13.5861C65.0605 13.5813 65.0535 13.5783 65.0463 13.5778C65.039 13.5772 65.0318 13.5789 65.0257 13.5828C65.0196 13.5867 65.015 13.5925 65.0126 13.5993C64.4369 15.0189 63.681 16.3588 62.7449 17.6191C62.4494 18.0173 61.9694 18.5004 61.6907 18.7571C60.5579 19.803 59.2585 20.4149 57.7684 20.1027C57.1669 19.9762 56.667 19.6688 56.2688 19.1805L55.857 18.5067L55.6401 17.8884C55.6377 17.8814 55.6334 17.8752 55.6277 17.8704C55.6221 17.8656 55.6152 17.8624 55.6079 17.8612C55.6006 17.8601 55.5931 17.8609 55.5862 17.8636C55.5793 17.8664 55.5733 17.871 55.5688 17.8769C54.9662 18.6387 54.0158 19.3922 53.0129 19.3461C51.9367 19.2958 51.4872 18.536 51.4337 17.5478C51.3772 16.4957 51.5249 15.3724 51.6957 14.3318L51.7376 14.0447L51.8089 13.6192C51.8096 13.6143 51.8094 13.6092 51.8081 13.6044C51.8068 13.5996 51.8046 13.5951 51.8015 13.5913C51.7985 13.5874 51.7947 13.5843 51.7903 13.5821C51.786 13.5798 51.7813 13.5786 51.7764 13.5784L50.4026 13.5008C50.3909 13.5003 50.3793 13.5038 50.3699 13.5109C50.3605 13.518 50.3539 13.5281 50.3512 13.5396C49.9038 15.451 49.3683 17.1654 47.9955 18.5538C47.0451 19.5158 45.5581 19.6562 44.5657 18.6607L44.1822 18.1095L43.9841 17.7428C43.9778 17.7309 43.9687 17.7208 43.9575 17.7133C43.9464 17.7058 43.9336 17.7012 43.9202 17.6998C43.9068 17.6985 43.8933 17.7005 43.8809 17.7056C43.8685 17.7107 43.8575 17.7188 43.849 17.7291C43.5367 18.1099 43.1668 18.4658 42.7392 18.797C42.1157 19.2811 41.2334 19.475 40.5407 19.0495C39.7474 18.5622 39.7558 17.4923 39.8522 16.654C40.0157 15.2194 40.4726 13.724 40.7922 12.2622C40.911 11.7487 40.9707 11.2583 40.9714 10.7909C40.8778 10.5345 40.7035 10.442 40.4485 10.5132C39.956 10.6515 39.6123 11.0969 39.2413 11.6198C38.316 12.9213 37.6317 14.3727 36.982 15.8167C36.7207 16.3958 36.5171 16.9722 36.3711 17.5457C36.2589 17.9859 36.0703 18.3055 35.5967 18.2332C35.0381 18.1493 34.9333 17.682 35.0821 17.2115C35.1122 17.1165 35.1457 16.9687 35.1827 16.7682C35.6564 14.2155 36.0647 11.9782 36.4077 10.0563C36.435 9.90857 36.4905 9.44015 36.6372 9.28087C36.9956 8.89314 37.5605 8.98326 37.8518 9.39824C37.9188 9.49464 37.937 9.61166 37.9063 9.74928C37.7889 10.2725 37.6789 10.8947 37.5762 11.6156C37.5741 11.6272 37.5762 11.6392 37.5821 11.6494C37.5881 11.6596 37.5976 11.6673 37.6087 11.6711C37.6199 11.6749 37.6321 11.6746 37.643 11.6702C37.654 11.6657 37.663 11.6575 37.6684 11.6471C37.8926 11.2502 38.1319 10.8747 38.3862 10.5205C38.9468 9.74195 39.6416 9.07233 40.6382 9.01051C41.5226 8.95602 42.1755 9.56485 42.3075 10.4137C42.4238 11.1608 42.2687 11.9195 42.0675 12.7662C41.6064 14.7084 41.3602 15.7699 41.3287 15.9508C41.2442 16.4475 41.2023 16.9016 41.203 17.3131C41.203 17.6453 41.2355 17.8664 41.6463 17.813C41.9292 17.7697 42.1695 17.6331 42.3672 17.4032C42.8451 16.8974 43.2653 16.3623 43.6279 15.7978C43.6634 15.7431 43.6827 15.6795 43.6834 15.6144C43.6988 13.9203 44.1256 12.3268 44.9639 10.8339C45.2336 10.3532 45.5522 9.93162 45.9196 9.56904C46.9581 8.54523 48.8517 8.44778 49.7791 9.71156C50.2842 10.399 50.4487 11.12 50.5242 11.973C50.526 11.9904 50.5337 12.0067 50.546 12.0189C50.5582 12.0311 50.5742 12.0386 50.5912 12.04L51.0754 12.083L51.3855 12.1144L52.0132 12.1081C52.0326 12.1081 52.0514 12.1014 52.0665 12.0892C52.0815 12.077 52.0919 12.06 52.096 12.0411L53.1942 6.82771L53.3472 6.11093L53.4426 5.65824C53.4438 5.65218 53.4436 5.64591 53.4419 5.63996C53.4403 5.63402 53.4373 5.62856 53.4332 5.62405C53.4291 5.61954 53.424 5.6161 53.4184 5.61403C53.4127 5.61195 53.4066 5.6113 53.4007 5.61213C53.3196 5.62191 53.1729 5.63658 52.9605 5.65614C51.1358 5.82101 49.5629 5.901 48.2418 5.89611C47.569 5.89297 46.8198 5.83533 46.1743 5.68548C45.534 5.53668 45.3642 4.90479 45.8725 4.46047C45.9947 4.35289 46.1138 4.30957 46.2298 4.33053C47.0772 4.48213 48.3602 4.5223 50.0788 4.45104C51.2287 4.40284 52.4733 4.32075 53.8125 4.20478C53.8199 4.20423 53.8269 4.20151 53.8325 4.197C53.8382 4.19249 53.8422 4.18642 53.8439 4.17963C54.1569 2.98641 54.4241 1.88995 54.6456 0.890238C54.7357 0.485045 54.8478 0.232147 54.982 0.131547C55.311 -0.11576 56.0026 -0.0224941 56.1294 0.480504C56.1553 0.5825 56.1354 0.74842 56.0697 0.978262C55.814 1.87597 55.5503 2.8914 55.2785 4.02454C55.2766 4.03293 55.2767 4.04164 55.2787 4.05001C55.2807 4.05839 55.2847 4.0662 55.2902 4.07287C55.2958 4.07954 55.3028 4.08488 55.3108 4.08849C55.3187 4.0921 55.3274 4.09388 55.3362 4.0937L55.8025 4.07694Z" fill="#1F1E1F"/>
        <path d="M56.8177 4.0361L55.8022 4.07697L56.5798 1.11137C56.5829 1.09961 56.5884 1.08862 56.5959 1.07909C56.6034 1.06955 56.6129 1.06168 56.6236 1.05597C56.6343 1.05026 56.6461 1.04684 56.6582 1.04591C56.6704 1.04498 56.6825 1.04658 56.694 1.05059C57.1813 1.22245 57.2085 1.6479 57.0776 2.12366C56.8771 2.85091 56.7475 3.42272 56.6888 3.83909C56.6755 3.93829 56.7185 4.00396 56.8177 4.0361Z" fill="#C0BEC2"/>
        <path d="M53.8943 17.6002C53.7294 17.7728 53.5031 17.8703 53.2152 17.8926C53.1964 17.435 53.2201 16.9837 53.2865 16.5387C53.5904 14.5086 53.8828 12.8064 54.1636 11.4322C54.6373 9.11496 55.0173 7.32582 55.3037 6.06483C55.3094 6.03958 55.323 6.01681 55.3424 5.99985C55.3618 5.98288 55.3861 5.97261 55.4117 5.97052C57.4991 5.80006 59.5893 5.80355 61.6824 5.981C62.1916 6.02431 62.7778 6.11478 63.4408 6.25241C63.73 6.31249 63.9899 6.32576 64.2204 6.29223C64.2817 6.2836 64.3407 6.26274 64.3938 6.23087C64.4469 6.19901 64.4931 6.1568 64.5295 6.10675C64.6623 5.92301 64.7541 5.70051 64.8051 5.43923C64.8067 5.43091 64.8103 5.42308 64.8155 5.41639C64.8207 5.4097 64.8274 5.40435 64.835 5.40076C64.8427 5.39718 64.8511 5.39548 64.8596 5.39579C64.8681 5.3961 64.8763 5.39842 64.8837 5.40255C65.21 5.58279 65.3811 5.79692 65.3972 6.04492C65.4175 6.34602 65.3176 6.6087 65.0975 6.83295C64.9166 7.01599 64.6466 7.07467 64.2875 7.009C63.5906 6.88115 62.8403 6.72921 62.0701 6.66948C60.3851 6.53744 58.9466 6.51264 57.7548 6.59508C56.8445 6.65795 56.2622 6.69602 56.0079 6.7093C55.9759 6.71119 55.9452 6.72272 55.9199 6.74238C55.8946 6.76203 55.876 6.78887 55.8665 6.81933C55.7798 7.09178 55.7166 7.33036 55.6768 7.53505C55.4071 8.89874 54.9984 10.9352 54.4507 13.6444C54.2027 14.8711 54.0319 15.9896 53.9383 16.9998C53.9215 17.1758 53.9069 17.376 53.8943 17.6002Z" fill="#C0BEC2"/>
        <path d="M53.3471 6.11096L53.1941 6.82774C52.4075 6.90039 51.6219 6.96187 50.8374 7.01217C49.8576 7.07504 48.7185 7.03522 48.0101 6.99435C47.4799 6.96431 47.0908 6.90249 46.8428 6.80887C46.5766 6.70897 46.3939 6.51371 46.2947 6.22309C46.2922 6.21623 46.2916 6.20885 46.2929 6.20167C46.2941 6.19449 46.2972 6.18777 46.3019 6.18216C46.3066 6.17655 46.3126 6.17226 46.3194 6.1697C46.3262 6.16713 46.3336 6.16639 46.3408 6.16755C47.293 6.33242 48.2686 6.39809 49.2676 6.36456C50.1824 6.33417 51.3173 6.30588 52.3359 6.19585C52.6733 6.15952 53.0104 6.13122 53.3471 6.11096Z" fill="#C0BEC2"/>
        <path d="M68.0408 16.7085L67.5033 17.1915C67.4791 16.6016 67.5022 15.9477 67.3911 15.3975C67.3003 14.9434 67.2472 14.6825 67.2318 14.6147C67.1438 14.2396 66.9887 13.6286 66.7666 12.7819C66.6087 12.1811 66.5214 11.5513 66.5046 10.8925C66.4973 10.5897 66.6985 10.6023 66.8955 10.4996C67.2755 10.3005 67.4795 9.9613 67.5074 9.48206C67.5079 9.47085 67.5115 9.46 67.5177 9.4507C67.524 9.44139 67.5327 9.434 67.5429 9.42934C67.5531 9.42467 67.5644 9.42292 67.5755 9.42427C67.5866 9.42562 67.5972 9.43003 67.6059 9.437C67.8836 9.65182 68.0848 9.92951 68.0681 10.2869C68.0408 10.8726 67.7149 11.0749 67.1941 11.3211C67.1653 11.3349 67.1404 11.3562 67.1218 11.383C66.9856 11.58 67.0736 12.0002 67.1124 12.5011C67.1347 12.7854 67.1739 13.0575 67.2297 13.3174C67.4505 14.3325 67.6873 15.2878 67.9402 16.1835C67.9584 16.2456 67.9682 16.3347 67.9696 16.4507C67.9717 16.5597 67.9954 16.6456 68.0408 16.7085Z" fill="#C0BEC2"/>
        <path d="M58.4328 14.4041C58.6151 13.4016 59.0626 12.5573 59.7752 11.8713C59.9533 11.6984 60.1252 11.6303 60.3599 11.5349C60.4885 11.4832 60.5457 11.3837 60.5318 11.2362C60.493 10.8234 60.1839 10.7752 59.814 10.8066C59.5729 10.8265 59.2334 11.0948 59.1003 11.2415C58.6218 11.7661 58.2501 12.3477 57.9854 12.9863C57.7583 13.5333 57.6018 14.1019 57.5159 14.6923C57.3859 14.7572 57.2249 14.7897 57.0328 14.7897C57.0261 14.7896 57.0195 14.7881 57.0134 14.7853C57.0073 14.7824 57.0018 14.7783 56.9974 14.7732C56.993 14.768 56.9896 14.762 56.9876 14.7555C56.9856 14.7489 56.9849 14.742 56.9856 14.7352C57.1617 13.3855 57.9874 10.5907 59.6243 10.3026C59.815 10.269 60.026 10.3197 60.2572 10.4545C60.7309 10.7322 60.7298 11.6407 60.5988 12.084C60.2831 13.1564 59.5611 13.9297 58.4328 14.4041Z" fill="#F4F4EA"/>
        <path d="M47.5858 10.7301C46.8467 11.4113 46.3109 12.2562 45.9783 13.265C45.5208 14.6525 45.425 15.984 45.6912 17.2597C45.7289 17.4399 45.8019 17.5901 45.9102 17.7103C45.92 17.7211 45.9324 17.7293 45.9462 17.7341C45.9599 17.739 45.9747 17.7402 45.9891 17.7378C46.0035 17.7354 46.0171 17.7294 46.0286 17.7204C46.0401 17.7114 46.0491 17.6996 46.0548 17.6862L46.1282 17.5143C46.1378 17.4915 46.1421 17.4668 46.1408 17.442C46.0926 16.6382 46.0758 15.8303 46.2487 15.0569C46.5421 13.7415 47.1024 12.5577 47.9295 11.5056C48.2167 11.9247 48.5754 12.2768 49.0058 12.5619C49.0251 12.5746 49.0407 12.5923 49.0508 12.6132C49.061 12.634 49.0653 12.6572 49.0634 12.6803C48.9551 13.8791 48.6152 15.051 48.0438 16.196C47.7734 16.7357 47.1258 17.7658 46.4897 17.8842C44.9116 18.1776 44.9703 15.6448 45.0834 14.7447C45.2287 13.585 45.5791 12.4972 46.1345 11.4815C46.387 11.0204 46.7611 10.5404 47.2254 10.3246C47.2553 10.3107 47.2894 10.3087 47.3207 10.319C47.352 10.3293 47.3782 10.3512 47.3941 10.3801L47.5858 10.7301Z" fill="#F4F4EA"/>
        <path d="M42.367 17.4033C42.1693 17.6331 41.929 17.7697 41.646 17.813C41.6055 17.5664 41.601 17.3708 41.6324 17.2262C41.8106 16.4067 41.9594 15.516 42.1448 14.7782C42.3104 14.1209 42.4938 13.3416 42.695 12.4404C42.8347 11.8158 42.8539 11.1919 42.7526 10.5688C42.7507 10.5573 42.7524 10.5454 42.7576 10.535C42.7628 10.5245 42.7711 10.5159 42.7815 10.5105C42.7918 10.505 42.8036 10.5029 42.8151 10.5046C42.8267 10.5062 42.8375 10.5114 42.8459 10.5195C43.6245 11.252 43.4044 12.4383 43.2389 13.3824C43.2228 13.476 43.1198 13.8673 42.9297 14.5561C42.6747 15.4817 42.4872 16.4308 42.367 17.4033Z" fill="#C0BEC2"/>
        <path d="M57.978 17.6547L57.979 17.7668C57.979 17.8065 57.9847 17.846 57.9958 17.8842C58.0426 18.0414 58.0646 18.1926 58.0618 18.338C58.0617 18.3456 58.0598 18.3531 58.0562 18.3599C58.0527 18.3667 58.0476 18.3725 58.0414 18.377C58.0352 18.3815 58.028 18.3844 58.0205 18.3857C58.0129 18.3869 58.0052 18.3863 57.9979 18.3841C57.5242 18.2342 57.3712 17.18 57.3691 16.7284C57.3689 16.6935 57.3816 16.6599 57.4046 16.6339C57.4277 16.608 57.4595 16.5916 57.4938 16.5879C59.2746 16.3937 60.668 15.6186 61.674 14.2626C62.4526 13.2137 62.7229 11.9782 62.4578 10.7259C62.4566 10.719 62.4576 10.7119 62.4609 10.7057C62.4642 10.6995 62.4694 10.6946 62.4758 10.6917C62.4821 10.6888 62.4893 10.6881 62.4961 10.6898C62.5029 10.6914 62.509 10.6953 62.5133 10.7008C62.9639 11.2855 63.1644 11.937 63.1148 12.6551C63.096 12.9339 63.0792 13.3583 62.9587 13.6632C62.6331 14.4862 62.2196 15.1404 61.718 15.626C61.1458 16.1799 60.4863 16.6009 59.7395 16.8887C59.3022 17.0564 58.7258 17.2031 58.0105 17.3288C57.9918 17.3319 57.9745 17.3405 57.9607 17.3536C57.9469 17.3666 57.9372 17.3836 57.9329 17.4022C57.9196 17.4574 57.9294 17.5188 57.9623 17.5866C57.9726 17.608 57.978 17.6313 57.978 17.6547Z" fill="#C0BEC2"/>
        <path d="M47.5856 10.7301L47.9294 11.5056C47.1022 12.5577 46.5419 13.7415 46.2485 15.0569C46.0756 15.8303 46.0924 16.6382 46.1406 17.442C46.1419 17.4668 46.1376 17.4915 46.128 17.5143L46.0546 17.6861C46.0489 17.6996 46.0399 17.7114 46.0284 17.7204C46.0169 17.7294 46.0034 17.7354 45.9889 17.7378C45.9745 17.7402 45.9597 17.7389 45.946 17.7341C45.9322 17.7293 45.9198 17.7211 45.91 17.7102C45.8017 17.5901 45.7287 17.4399 45.691 17.2596C45.4249 15.984 45.5206 14.6524 45.9781 13.265C46.3107 12.2562 46.8465 11.4112 47.5856 10.7301Z" fill="#C0BEC2"/>
        <path d="M40.9712 10.7909C40.9705 11.2583 40.9107 11.7487 40.792 12.2622C40.7843 12.2237 40.7714 12.1951 40.7532 12.1762C40.7472 12.1697 40.7397 12.1647 40.7314 12.1617C40.7231 12.1587 40.7141 12.1578 40.7053 12.159C40.6966 12.1603 40.6882 12.1636 40.681 12.1688C40.6739 12.174 40.668 12.1809 40.6641 12.1888C40.5964 12.3285 40.5167 12.4515 40.4252 12.5577C40.2436 12.7708 40.0518 13.0418 39.8499 13.3709C38.9731 14.8023 38.2284 16.3253 37.6158 17.9398C37.5312 18.1633 37.4743 18.3362 37.4449 18.4585C37.3548 18.8399 37.271 19.2706 36.834 19.3628C36.4086 19.4529 35.7662 19.2413 35.7861 18.7215C35.7864 18.7106 35.7891 18.6999 35.7938 18.69C35.7986 18.6802 35.8054 18.6715 35.8138 18.6644C35.8221 18.6573 35.8319 18.652 35.8425 18.6488C35.8531 18.6457 35.8642 18.6447 35.8752 18.646C36.3642 18.7061 36.6726 18.4972 36.8005 18.0194C37.2133 16.4748 37.8033 15.387 38.65 13.7083C38.8002 13.41 38.9655 13.1211 39.1457 12.8417C39.6141 12.1165 39.9369 11.5957 40.3822 11.2038C40.4696 11.1269 40.6659 10.9893 40.9712 10.7909Z" fill="#C0BEC2"/>
        <path d="M58.4325 14.4041L57.5156 14.6923C57.6016 14.102 57.758 13.5333 57.9851 12.9863C58.2499 12.3478 58.6215 11.7662 59.1001 11.2415C59.2332 11.0948 59.5727 10.8266 59.8137 10.8066C60.1836 10.7752 60.4927 10.8234 60.5315 11.2363C60.5455 11.3837 60.4882 11.4832 60.3597 11.5349C60.1249 11.6303 59.9531 11.6984 59.7749 11.8713C59.0623 12.5574 58.6149 13.4016 58.4325 14.4041Z" fill="#C0BEC2"/>
        <path d="M51.3852 12.1144L51.0751 12.083C51.096 12.011 51.0775 11.915 51.0195 11.7948C51.0126 11.7802 51.008 11.765 51.0059 11.7497L50.9095 11.0979C50.9072 11.0823 50.9099 11.0663 50.9173 11.0522C50.9247 11.0382 50.9364 11.027 50.9507 11.0201C50.965 11.0132 50.9811 11.011 50.9967 11.0139C51.0122 11.0168 51.0265 11.0246 51.0373 11.0361C51.1966 11.2052 51.3094 11.3994 51.3758 11.6188C51.4149 11.748 51.4181 11.9132 51.3852 12.1144Z" fill="#C0BEC2"/>
        <path d="M51.7376 14.0447L51.6957 14.3318L51.6622 14.2742C51.6584 14.268 51.6529 14.2631 51.6464 14.2599C51.6399 14.2568 51.6326 14.2556 51.6254 14.2565C51.6183 14.2574 51.6115 14.2603 51.6059 14.2649C51.6004 14.2695 51.5963 14.2757 51.5941 14.2826C51.3104 15.2508 51.0533 16.0637 50.8228 16.7211C50.4679 17.7326 49.9611 18.6311 49.3023 19.4163C49.0976 19.6601 48.8409 19.8823 48.5321 20.0828C47.3678 20.8394 45.8557 20.592 45.0572 19.4435C45.0534 19.4385 45.0515 19.4323 45.0518 19.426C45.0521 19.4197 45.0545 19.4137 45.0587 19.409C45.0629 19.4043 45.0686 19.4012 45.0748 19.4003C45.081 19.3993 45.0874 19.4005 45.0928 19.4037C46.1184 19.9829 47.116 19.9406 48.0857 19.2769C48.2463 19.1672 48.4849 18.9423 48.8014 18.6021C49.085 18.2975 49.4259 17.7386 49.8242 16.9254C50.265 16.0249 50.5821 15.0776 50.7757 14.0835C50.7843 14.0384 50.81 13.9985 50.8474 13.9718C50.8848 13.9451 50.9312 13.9337 50.9769 13.9399L51.7376 14.0447Z" fill="#C0BEC2"/>
        <path d="M65.3204 14.6556L65.5709 15.8628C65.0134 16.8947 64.3763 17.893 63.6595 18.8578L62.7834 18.4962C63.1495 18.0645 63.4803 17.6174 63.7758 17.1549C64.2027 16.4877 64.5946 15.8007 64.9516 15.0937C64.9731 15.0512 64.9999 15.0121 65.0312 14.9773L65.3204 14.6556Z" fill="#C0BEC2"/>
        <path d="M62.9282 20.5072C63.7738 21.0468 65.0292 20.8708 65.9514 20.4789C67.8397 19.6762 69.2796 18.2552 70.6597 16.7252C70.8923 16.4664 71.2088 16.0745 71.2224 15.6951C71.2229 15.6805 71.2273 15.6662 71.2351 15.6538C71.2429 15.6414 71.2538 15.6312 71.2667 15.6243C71.2797 15.6175 71.2942 15.6141 71.3088 15.6145C71.3235 15.615 71.3378 15.6193 71.3502 15.627C71.7883 15.9016 72.0586 16.4371 71.6803 16.9128C70.7393 18.0949 69.6607 19.1445 68.4444 20.0618C67.2498 20.963 65.8539 21.6389 64.3617 21.4786C63.7089 21.4084 63.2331 21.0741 62.8936 20.5417C62.8906 20.5369 62.8894 20.5312 62.8901 20.5256C62.8907 20.52 62.8933 20.5148 62.8973 20.5108C62.9012 20.5068 62.9065 20.5043 62.9121 20.5036C62.9177 20.503 62.9234 20.5042 62.9282 20.5072Z" fill="#C0BEC2"/>
        <path d="M44.5655 18.6608L44.6577 19.059C44.6612 19.0751 44.6606 19.0917 44.6561 19.1075C44.6515 19.1232 44.643 19.1375 44.6315 19.1491C44.2857 19.4956 43.9294 19.8019 43.5626 20.0681C43.1215 20.3888 42.6373 20.4296 42.1228 20.4506C41.559 20.473 41.1147 20.2005 40.7899 19.6332C40.788 19.6297 40.7871 19.6257 40.7874 19.6217C40.7877 19.6177 40.7892 19.6138 40.7916 19.6106C40.794 19.6074 40.7973 19.605 40.8011 19.6036C40.8049 19.6022 40.809 19.6019 40.8129 19.6028C41.4259 19.7527 41.996 19.8365 42.6216 19.5473C43.3244 19.2231 43.8445 18.7439 44.1819 18.1096L44.5655 18.6608Z" fill="#C0BEC2"/>
        <path d="M56.2688 19.1805C56.1633 19.3796 56.0879 19.505 56.0425 19.5567C55.9866 19.6196 55.7717 19.7862 55.398 20.0566C54.9401 20.3877 54.2484 20.5491 53.7926 20.5187C53.2072 20.4803 52.7531 20.1994 52.4303 19.6762C52.4248 19.6672 52.4222 19.6568 52.423 19.6463C52.4237 19.6358 52.4277 19.6258 52.4344 19.6177C52.4411 19.6096 52.4502 19.6038 52.4604 19.6012C52.4705 19.5985 52.4813 19.5991 52.4911 19.6028C52.8369 19.7391 53.1177 19.8281 53.4772 19.7967C53.9739 19.7541 54.3906 19.6287 54.7273 19.4205C55.071 19.2088 55.4476 18.9042 55.857 18.5067L56.2688 19.1805Z" fill="#C0BEC2"/>
        <path d="M62.1978 19.1847C62.1901 19.4816 62.3229 19.7485 62.596 19.9853C61.9554 20.5938 61.2288 21.0102 60.4164 21.2344C60.1062 21.3203 59.6671 21.3413 59.3454 21.3413C58.7104 21.3427 58.1571 21.1621 57.6855 20.7995C57.4246 20.5983 57.2056 20.4464 57.0107 20.1834C57.0045 20.1758 57.0012 20.1662 57.0015 20.1564C57.0018 20.1466 57.0055 20.1372 57.0121 20.13C57.0187 20.1227 57.0277 20.1181 57.0375 20.117C57.0472 20.1158 57.057 20.1182 57.0651 20.1236C57.4557 20.3584 57.8322 20.5173 58.1948 20.6004C59.1735 20.8247 60.2906 20.5113 61.1258 19.9518C61.2774 19.8498 61.6347 19.5941 62.1978 19.1847Z" fill="#C0BEC2"/>
        <path d="M22.854 17.7019L23.3674 17.1612C23.6483 16.8793 24.1806 16.3574 24.2288 16.021C24.4803 14.2773 24.7524 12.4309 25.0451 10.4818C25.1384 9.85511 25.7032 9.48939 26.2607 9.92427C26.5499 10.1506 26.3844 10.9806 26.3267 11.3421C26.0277 13.2186 25.7878 14.8505 25.6068 16.2379C25.5118 16.9638 25.4744 17.471 25.4947 17.7595C25.5198 18.1123 25.5541 18.3222 25.5974 18.3893C25.728 18.5905 25.9079 18.6164 26.1371 18.4669C26.4074 18.2803 26.5828 18.0907 26.6631 17.8978C26.96 17.5178 27.201 17.1542 27.3862 16.807C28.3922 14.9179 29.1994 12.9478 29.8079 10.8967C29.9661 10.3633 29.9598 9.69793 30.7112 9.74194C31.1775 9.76918 31.4322 10.0574 31.3756 10.5279C31.3378 10.8436 31.2736 11.3131 31.1828 11.9363C30.7664 14.7964 30.2948 17.9321 29.7681 21.3434C29.7671 21.3501 29.7677 21.357 29.7697 21.3635C29.7718 21.37 29.7752 21.3759 29.7798 21.3809C29.7844 21.386 29.7901 21.3899 29.7964 21.3924C29.8027 21.395 29.8095 21.3961 29.8163 21.3958L30.2784 21.3685L31.0675 21.2606C35.6112 20.6916 40.2074 20.6517 44.7501 21.2815C45.0728 21.3266 45.3495 21.3612 45.5234 21.6001C45.7906 21.9679 45.5161 22.8513 44.9261 22.7497C43.5016 22.5038 42.0671 22.3431 40.6223 22.2676C36.947 22.0741 33.2768 22.2736 29.6119 22.866C29.597 22.8685 29.5833 22.8755 29.5727 22.886C29.5622 22.8966 29.5553 22.9101 29.5533 22.9247C29.4184 23.8098 29.2728 24.6981 29.1163 25.5895C28.8808 26.9294 28.4054 28.1293 27.6901 29.1891C27.0603 30.1217 25.9034 30.7211 24.7381 30.8123C22.2975 31.003 19.3749 29.1859 19.9009 26.3702C20.3086 24.1916 22.8047 23.128 24.6511 22.5443C25.6941 22.2145 26.8964 21.9305 28.258 21.6923C28.2831 21.688 28.3061 21.6761 28.324 21.658C28.3418 21.64 28.3536 21.6168 28.3576 21.5917L28.585 20.1089L28.8616 18.2279L29.0775 16.6623C29.0784 16.6554 29.0769 16.6483 29.0731 16.6423C29.0694 16.6363 29.0637 16.6319 29.057 16.6296C29.0503 16.6274 29.043 16.6276 29.0365 16.6301C29.0299 16.6326 29.0244 16.6374 29.0209 16.6435C28.4184 17.7595 27.8242 18.9175 26.748 19.6793C26.0448 20.176 24.8974 20.1613 24.4311 19.3251L24.2969 19.0998C24.1977 18.8686 24.1429 18.645 24.1324 18.4291C24.1317 18.4141 24.1262 18.3998 24.1168 18.3881C24.1073 18.3765 24.0944 18.3681 24.0798 18.3644C24.0653 18.3606 24.0499 18.3616 24.036 18.3673C24.0221 18.3729 24.0103 18.3828 24.0025 18.3956C23.9116 18.5388 23.7779 18.6866 23.6011 18.8389C22.8019 19.5256 21.9884 20.0698 21.1605 20.4715C20.2887 20.8959 19.4661 21.0196 18.5544 20.8844C18.3595 20.855 18.1667 20.7852 17.9759 20.6748C17.6574 20.4666 17.5222 20.1935 17.5704 19.8553C17.6375 19.5892 17.7639 19.4016 17.9497 19.2926C18.0413 19.2388 18.1597 19.2137 18.305 19.2172L18.9557 19.4026C19.7721 19.6447 20.6135 19.1616 20.8116 18.3264C20.9953 17.5517 20.9995 16.7504 20.8242 15.9225L20.6575 14.9396L20.4417 13.9839C20.4405 13.9788 20.4378 13.9742 20.4338 13.9709C20.4299 13.9675 20.425 13.9655 20.4198 13.9651C20.4146 13.9648 20.4094 13.9661 20.4051 13.9689C20.4007 13.9717 20.3974 13.9759 20.3956 13.9807C19.69 15.83 18.7626 17.5216 17.6134 19.0558C17.1177 19.717 16.4376 20.263 15.549 20.3667C15.0145 20.4289 14.5866 20.2504 14.2653 19.8312C14.0403 19.4735 13.917 19.1347 13.8954 18.8148L13.8053 18.1158C13.804 18.1062 13.7998 18.0972 13.7932 18.0901C13.7865 18.083 13.7779 18.0782 13.7683 18.0764C13.7588 18.0745 13.749 18.0757 13.7402 18.0798C13.7314 18.0838 13.7241 18.0906 13.7193 18.099C13.4207 18.6198 12.9952 19.148 12.5687 19.5776C11.7461 20.4065 10.6542 20.8383 9.57798 20.2934C8.95343 19.9758 8.59609 19.4487 8.39908 18.7854C8.39674 18.7773 8.39207 18.7701 8.38563 18.7646C8.3792 18.7591 8.3713 18.7556 8.36291 18.7546C8.35452 18.7536 8.34603 18.7551 8.33848 18.7589C8.33094 18.7627 8.32468 18.7687 8.32049 18.776C8.16644 19.0453 7.82168 19.3922 7.35117 19.8784C6.34832 20.9127 5.1296 21.5949 3.65519 21.3601C2.91467 21.2428 2.31282 20.9256 1.84964 20.4086C1.11505 19.5902 0.975683 18.5318 0.861461 17.4231C0.837359 17.1894 0.918048 16.9484 0.888706 16.7703C0.885902 16.7538 0.878042 16.7386 0.866215 16.7268C0.854388 16.7149 0.839178 16.7071 0.822689 16.7043C0.308165 16.6215 -0.0848029 16.4486 0.0157966 15.8156C0.08426 15.3797 0.377676 15.2204 0.896042 15.3378C0.925772 15.3444 0.956895 15.3389 0.982615 15.3226C1.00833 15.3063 1.02656 15.2805 1.03332 15.2508C1.12484 14.8442 1.216 14.468 1.30682 14.1222C1.81087 12.2003 3.35444 9.57322 5.7793 9.99763C6.06224 10.0472 6.30047 10.1496 6.49398 10.3047C7.55132 11.1545 7.56494 12.6635 7.00431 13.8099C6.09682 15.6658 4.38034 16.5838 2.31387 16.7231C2.29826 16.7244 2.28362 16.7312 2.27264 16.7424C2.26167 16.7535 2.2551 16.7683 2.25413 16.7839C2.2206 17.4168 2.23842 18.2698 2.5203 18.8672C3.29261 20.5061 4.98499 20.1561 6.11254 19.1616C6.86145 18.5021 7.52163 17.7277 8.09309 16.8384C8.14399 16.7593 8.17459 16.6682 8.18216 16.5733C8.30093 15.0629 8.77179 13.6727 9.59475 12.4026C10.1198 11.5925 11.022 10.7385 11.9389 10.3979C12.6732 10.1255 13.4235 10.0263 14.1898 10.1003C14.7421 10.1527 15.5553 10.2407 15.4976 10.9701C15.4672 11.3568 15.1309 11.8032 14.6939 11.647C13.581 11.2499 12.4304 11.4951 11.5239 12.2297C11.2885 12.4204 11.0499 12.6901 10.8082 13.0387C9.90213 14.3479 9.48157 15.8069 9.54654 17.4158C9.57379 18.1148 9.80852 19.0568 10.6856 19.0862C11.2504 19.1061 11.94 18.3222 12.2281 17.8926C13.0127 16.7252 13.6236 15.4593 14.0609 14.095C14.1252 13.8945 14.2097 13.4997 14.3145 12.9108C14.3194 12.8815 14.3425 12.8312 14.3837 12.7599C14.4689 12.623 14.5845 12.5315 14.7306 12.4854C15.0722 12.3764 15.3984 12.4903 15.7093 12.827C15.5521 14.0007 15.3893 15.1824 15.221 16.3721C15.1791 16.6676 14.938 19.3691 15.7407 18.8713C16.0062 18.7463 16.206 18.5971 16.3401 18.4239C16.818 17.8727 17.2232 17.3145 17.5557 16.7493C18.5128 15.1216 19.2935 13.4138 19.8978 11.6261C20.012 11.2876 20.0015 10.6924 20.1074 10.3099C20.2157 9.92148 20.369 9.60781 20.5674 9.36888C20.9929 8.8575 21.8102 8.71499 22.1644 9.41499C22.4065 9.89493 22.0858 10.4765 21.5367 10.5677C21.5098 10.5722 21.485 10.5853 21.4661 10.6049C21.4472 10.6246 21.4352 10.6497 21.4319 10.6767C21.3628 11.2083 21.3921 11.7703 21.52 12.3628C21.7163 13.2737 21.8808 14.0108 22.0135 14.5739C22.3111 15.8408 22.4117 17.0165 22.2179 18.2478C22.2169 18.2527 22.2175 18.2577 22.2196 18.2622C22.2217 18.2666 22.2252 18.2703 22.2295 18.2726C22.2339 18.275 22.2388 18.2759 22.2437 18.2752C22.2486 18.2745 22.2531 18.2723 22.2566 18.2688L22.854 17.7019Z" fill="#1F1E1F"/>
        <path d="M23.3674 17.1611L22.8539 17.7018C22.8106 17.4741 22.7851 17.2446 22.7775 17.0134C22.7628 16.6131 22.7513 16.3825 22.7429 16.3218C22.6643 15.7664 22.6339 15.189 22.4882 14.6021C22.1686 13.3226 21.8983 12.3187 21.9129 11.1975C21.9132 11.1636 21.9239 11.1305 21.9435 11.1026C21.9631 11.0747 21.9908 11.0534 22.023 11.0413C22.4177 10.8911 22.6562 10.5736 22.7387 10.0888C22.7405 10.0784 22.7449 10.0686 22.7515 10.0604C22.7581 10.0522 22.7666 10.0458 22.7762 10.0418C22.7859 10.0378 22.7964 10.0364 22.8067 10.0376C22.817 10.0389 22.8268 10.0428 22.8351 10.049C23.1704 10.2935 23.3203 10.5956 23.2846 10.9554C23.2553 11.2488 22.9336 11.6051 22.6873 11.7267C22.4715 11.8335 22.4149 12.0064 22.4274 12.2056C22.4631 12.7742 22.4826 13.1019 22.4861 13.1885C22.4875 13.2233 22.4924 13.2581 22.5008 13.2922L22.942 15.1481C22.9469 15.169 22.9539 15.1894 22.9629 15.2089C23.0475 15.3849 23.0978 15.5438 23.1138 15.6857C23.1739 16.2138 23.2584 16.7056 23.3674 17.1611Z" fill="#C0BEC2"/>
        <path d="M31.0674 21.2606L30.2783 21.3685C30.476 20.3639 30.6353 19.3548 30.7562 18.3411C30.8149 17.8493 30.8624 17.5126 30.8987 17.3309C30.9909 16.8782 31.0035 16.5146 31.0905 15.9823C31.3762 14.219 31.6357 12.5224 31.8691 10.8926C31.8731 10.8635 31.8853 10.8361 31.904 10.8135C31.9228 10.7909 31.9475 10.774 31.9753 10.7646C32.0032 10.7553 32.0331 10.7539 32.0617 10.7605C32.0903 10.7672 32.1165 10.7817 32.1373 10.8024L32.2453 10.9104C32.3266 10.9917 32.3879 11.0909 32.4243 11.2C32.4606 11.3091 32.4711 11.4252 32.4548 11.5391C32.0573 14.3329 31.6242 17.2698 31.1554 20.35C31.1554 20.3507 31.1313 20.4694 31.0831 20.7063C31.044 20.9012 31.0388 21.086 31.0674 21.2606Z" fill="#C0BEC2"/>
        <path d="M26.663 17.8978C26.5827 18.0907 26.4073 18.2803 26.137 18.4669C25.9763 18.2957 25.9096 18.077 25.9368 17.8109C26.0304 16.9069 26.0958 16.3288 26.1328 16.0766C26.211 15.5435 26.4157 14.2459 26.7469 12.1836C26.7818 11.9698 26.829 11.5569 26.8883 10.9449C26.8918 10.9088 26.9047 10.8742 26.9257 10.8446C26.9468 10.815 26.9752 10.7915 27.0082 10.7763C27.0412 10.7611 27.0776 10.7549 27.1137 10.7582C27.1499 10.7615 27.1845 10.7742 27.2142 10.7951L27.3264 10.8737C27.4056 10.9295 27.4674 11.0066 27.5045 11.096C27.5416 11.1854 27.5525 11.2835 27.5359 11.3788C27.4657 11.778 27.3913 12.1427 27.3494 12.5661C27.2949 13.1257 27.1929 13.8071 27.0434 14.6105C26.8925 15.423 26.7657 16.5188 26.663 17.8978Z" fill="#C0BEC2"/>
        <path d="M15.7092 12.827C15.3983 12.4903 15.072 12.3764 14.7304 12.4854C14.5844 12.5315 14.4688 12.623 14.3836 12.7599C14.3808 12.7481 14.3773 12.7376 14.3731 12.7285C14.3667 12.712 14.3553 12.6979 14.3404 12.6883C14.3255 12.6787 14.308 12.6741 14.2903 12.675C12.9385 12.739 12.0918 13.6087 11.4651 14.751C10.7672 16.0231 10.4948 17.3711 10.6478 18.7949C10.6504 18.8181 10.6467 18.8417 10.637 18.863C10.6274 18.8844 10.6121 18.9027 10.5929 18.9162C10.5736 18.9297 10.551 18.9378 10.5275 18.9397C10.504 18.9415 10.4804 18.9371 10.4591 18.9269L10.4466 18.9216C10.3789 18.889 10.3194 18.8414 10.2726 18.7824C10.2258 18.7234 10.1929 18.6546 10.1762 18.5811C10.1231 18.3519 10.0917 18.1825 10.0819 18.0728C9.9289 16.3508 10.3107 14.8117 11.2273 13.4557C11.594 12.9129 12.2909 12.3146 12.928 12.105C13.4345 11.9394 13.926 11.9076 14.4024 12.0096C14.8447 12.1039 15.1077 12.1479 15.1915 12.1417C15.6763 12.1039 15.9502 11.8039 16.0131 11.2415C16.0139 11.2342 16.0168 11.2272 16.0214 11.2214C16.0261 11.2156 16.0322 11.2112 16.0392 11.2087C16.0461 11.2062 16.0536 11.2057 16.0609 11.2072C16.0681 11.2088 16.0748 11.2123 16.0801 11.2174L16.4333 11.5695C16.4485 11.5855 16.4609 11.6039 16.47 11.624C16.6425 12.0257 16.5894 12.3862 16.3107 12.7054C16.1772 12.8584 15.9767 12.899 15.7092 12.827Z" fill="#C0BEC2"/>
        <path d="M5.87131 11.7969C5.8734 11.8423 5.86921 11.8709 5.85873 11.8828C5.85323 11.8892 5.8465 11.8944 5.83895 11.8981C5.83141 11.9018 5.82318 11.904 5.81478 11.9045C5.80637 11.905 5.79796 11.9038 5.79003 11.901C5.7821 11.8981 5.77481 11.8937 5.76861 11.8881C5.45005 11.5946 4.89884 11.8881 4.63687 12.1165C4.2198 12.4791 3.88761 12.9209 3.64031 13.4421C3.35807 14.0366 3.12403 14.6434 2.9382 15.2623L2.48446 15.299C2.47802 15.2996 2.47154 15.2987 2.46551 15.2964C2.45948 15.294 2.45407 15.2903 2.44971 15.2856C2.44535 15.2808 2.44215 15.2751 2.44036 15.2689C2.43857 15.2627 2.43824 15.2561 2.4394 15.2498C2.61405 14.2361 2.96755 13.3178 3.49988 12.4948C3.8415 11.9666 4.52579 11.2897 5.18178 11.319C5.48078 11.333 5.71063 11.4923 5.87131 11.7969Z" fill="#F4F4EA"/>
        <path d="M7.84032 11.7309C8.53718 12.3607 8.58014 13.4735 8.31083 14.293C7.58987 16.4852 5.6942 17.66 3.47158 17.8895C3.44303 17.8923 3.41537 17.9011 3.3903 17.9151C3.36524 17.9291 3.3433 17.9482 3.32584 17.971C3.30837 17.9939 3.29574 18.0201 3.28873 18.0481C3.28171 18.076 3.28046 18.1051 3.28505 18.1336L3.47682 19.3167C3.47752 19.3209 3.47787 19.3251 3.47787 19.3293V19.6279C3.47769 19.64 3.4741 19.6518 3.46752 19.6619C3.46094 19.672 3.45163 19.68 3.44067 19.6851C3.42971 19.6901 3.41754 19.6919 3.40558 19.6904C3.39362 19.6888 3.38235 19.6839 3.37308 19.6761C2.70137 19.1071 2.74957 18.1724 2.71813 17.3183C2.71665 17.2812 2.72954 17.2449 2.75413 17.217C2.77872 17.189 2.81311 17.1717 2.85017 17.1685C4.91351 16.9998 6.56816 16.0388 7.48193 14.1704C7.85639 13.4047 7.95664 12.6024 7.78268 11.7634C7.78109 11.7561 7.78185 11.7486 7.78487 11.7418C7.7879 11.735 7.79301 11.7294 7.79947 11.7258C7.80593 11.7221 7.81338 11.7207 7.82074 11.7216C7.82809 11.7225 7.83496 11.7258 7.84032 11.7309Z" fill="#C0BEC2"/>
        <path d="M5.87158 11.7969L5.99209 12.3628C5.54568 12.6275 5.19987 12.8927 4.95466 13.1581C4.53829 13.6087 4.28469 13.9343 4.19387 14.1348C4.06673 14.4163 3.93783 14.716 3.8072 15.0339L2.93848 15.2623C3.12431 14.6434 3.35834 14.0366 3.64058 13.4421C3.88788 12.921 4.22007 12.4791 4.63714 12.1165C4.89912 11.8881 5.45032 11.5946 5.76888 11.8881C5.77509 11.8938 5.78237 11.8981 5.7903 11.901C5.79823 11.9038 5.80665 11.905 5.81505 11.9045C5.82346 11.904 5.83168 11.9019 5.83923 11.8981C5.84678 11.8944 5.8535 11.8892 5.859 11.8828C5.86948 11.8709 5.87367 11.8423 5.87158 11.7969Z" fill="#C0BEC2"/>
        <path d="M5.99178 12.3627C5.9827 12.6841 5.88629 13.0198 5.70255 13.3698C5.28129 14.1739 4.6494 14.7286 3.80688 15.0339C3.93752 14.716 4.06642 14.4163 4.19356 14.1348C4.28438 13.9343 4.53798 13.6087 4.95435 13.1581C5.19956 12.8926 5.54537 12.6275 5.99178 12.3627Z" fill="#F4F4EA"/>
        <path d="M16.3401 18.4239C16.206 18.5971 16.0062 18.7463 15.7407 18.8713C15.6394 18.4808 15.5999 18.1556 15.6223 17.8957C15.6803 17.2223 15.7127 16.8303 15.7197 16.7199C15.74 16.4265 15.7899 16.0378 15.8696 15.5536C15.9555 15.0325 16.0303 14.4107 16.0938 13.6883C16.0973 13.6505 16.1114 13.6144 16.1346 13.5843C16.1578 13.5542 16.1891 13.5313 16.2249 13.5184C16.2606 13.5054 16.2993 13.5029 16.3364 13.5111C16.3735 13.5193 16.4075 13.5379 16.4344 13.5647L16.5622 13.6925C16.6295 13.7597 16.6804 13.8414 16.7111 13.9313C16.7418 14.0212 16.7515 14.117 16.7393 14.2112C16.5961 15.3458 16.4714 16.2921 16.3652 17.05C16.3135 17.4175 16.3052 17.8754 16.3401 18.4239Z" fill="#C0BEC2"/>
        <path d="M20.6575 14.9396L20.8241 15.9225C20.7277 15.9714 20.7057 16.1248 20.7581 16.3826C20.7711 16.4457 20.7668 16.5115 20.7455 16.5733C20.6526 16.8373 20.5782 17.0211 20.5223 17.1245C20.2729 17.5814 20.0357 18.0246 19.8108 18.4543C19.6061 18.8455 19.3211 19.1616 18.9557 19.4026L18.3049 19.2172C18.5138 18.8175 18.7398 18.426 18.9829 18.0424C19.2882 17.5604 19.5177 17.1706 19.6714 16.873C19.9991 16.2414 20.3277 15.597 20.6575 14.9396Z" fill="#C0BEC2"/>
        <path d="M28.8617 18.2279L28.585 20.1089C28.2679 20.4526 27.9612 20.7108 27.665 20.8833C26.7921 21.3905 25.7064 21.2323 25.1468 20.3688C25.1426 20.3618 25.1405 20.3537 25.1409 20.3455C25.1413 20.3373 25.1442 20.3294 25.1491 20.323C25.1541 20.3166 25.1608 20.3119 25.1685 20.3096C25.1761 20.3073 25.1843 20.3075 25.1919 20.3101C25.7829 20.4966 26.5416 20.5501 27.0761 20.1697C27.7761 19.673 28.3713 19.0257 28.8617 18.2279Z" fill="#C0BEC2"/>
        <path d="M13.8955 18.8148C13.9171 19.1347 14.0404 19.4735 14.2654 19.8312C14.125 20.1128 13.9426 20.3569 13.7184 20.5637C13.0152 21.2113 12.3446 21.7384 11.3061 21.6787C10.5551 21.6354 9.95253 21.3077 9.49844 20.6958C9.49011 20.686 9.48571 20.6735 9.48611 20.6607C9.48651 20.6479 9.49168 20.6358 9.5006 20.6266C9.50952 20.6174 9.52156 20.6119 9.53434 20.6111C9.54712 20.6103 9.55974 20.6144 9.5697 20.6224C10.1261 21.0143 10.9163 21.0541 11.5597 20.897C11.9893 20.7915 12.4431 20.5215 12.9209 20.0869C13.3443 19.702 13.6691 19.2779 13.8955 18.8148Z" fill="#C0BEC2"/>
        <path d="M24.2972 19.0998L24.4313 19.3251C24.3684 19.3398 24.3646 19.3901 24.4198 19.476C24.4757 19.5619 24.5274 19.6353 24.5749 19.6961C24.6067 19.7366 24.6219 19.7878 24.6174 19.8391C24.6129 19.8905 24.5891 19.9382 24.5508 19.9727C23.7117 20.7237 22.7749 21.3325 21.7403 21.7992C21.4685 21.9215 21.1056 22.0203 20.6515 22.0958C19.765 22.2425 18.8522 22.1 18.3325 21.3046C18.3268 21.2957 18.3243 21.2853 18.3251 21.2748C18.326 21.2644 18.3302 21.2545 18.3372 21.2466C18.3442 21.2388 18.3536 21.2335 18.3639 21.2315C18.3742 21.2294 18.3849 21.2308 18.3943 21.2354C18.5089 21.2934 18.6346 21.3325 18.7715 21.3528C20.5802 21.6179 21.9802 20.8184 23.3991 19.7778C23.4235 19.7597 23.446 19.739 23.4662 19.716C23.7044 19.4519 23.9814 19.2465 24.2972 19.0998Z" fill="#C0BEC2"/>
        <path d="M8.72294 19.6426L8.92518 19.9193C8.97209 19.9834 8.99667 20.0611 8.99516 20.1404C8.99364 20.2198 8.96611 20.2963 8.9168 20.3584C7.93386 21.5865 6.85975 22.473 5.2575 22.5726C4.10584 22.6439 3.22665 22.1901 2.43967 21.3874C2.42745 21.3749 2.42071 21.358 2.4209 21.3406C2.4211 21.3231 2.42822 21.3064 2.44071 21.2941L2.46272 21.2721C2.46869 21.2662 2.47648 21.2626 2.48473 21.2618C2.49298 21.261 2.50114 21.2632 2.50778 21.2679C2.9507 21.5809 3.4247 21.779 3.9298 21.8621C4.02201 21.8775 4.26373 21.8834 4.65495 21.8799C6.15556 21.8674 7.47592 20.767 8.35093 19.6374C8.37301 19.6088 8.40142 19.5858 8.43393 19.5701C8.46644 19.5545 8.50216 19.5466 8.53824 19.5471C8.57433 19.5476 8.60981 19.5565 8.64186 19.5731C8.67392 19.5897 8.70167 19.6135 8.72294 19.6426Z" fill="#C0BEC2"/>
        <path d="M17.5704 19.8553C17.5222 20.1935 17.6574 20.4666 17.9759 20.6748L17.891 20.9148C17.8788 20.9488 17.8557 20.9782 17.825 20.9986C16.9982 21.5509 16.0981 21.839 15.2335 21.1621C15.0313 21.0049 14.9359 20.92 14.8731 20.7136C14.8708 20.7059 14.8708 20.6978 14.8731 20.6901C14.8754 20.6824 14.8799 20.6756 14.886 20.6705C14.8921 20.6653 14.8996 20.6621 14.9076 20.6612C14.9155 20.6603 14.9236 20.6618 14.9307 20.6654C15.0914 20.7499 15.2447 20.8006 15.3907 20.8173C16.38 20.9291 17.1065 20.6084 17.5704 19.8553Z" fill="#C0BEC2"/>
        <path d="M21.2477 30.1888C21.2438 30.1842 21.2412 30.1786 21.2403 30.1726C21.2395 30.1666 21.2403 30.1605 21.2426 30.1549C21.245 30.1494 21.2489 30.1446 21.2539 30.1411C21.2589 30.1377 21.2647 30.1357 21.2707 30.1353C21.2868 30.1347 21.3071 30.1437 21.3315 30.1626C21.9826 30.6537 22.6704 30.9849 23.3949 31.156C24.1794 31.3404 24.9405 31.3506 25.6783 31.1864C26.8435 30.9279 27.7692 30.2408 28.4552 29.1252C28.7326 28.6739 28.9638 28.1611 29.1489 27.5868C29.4403 26.6884 29.6285 25.9084 29.7138 25.2468C29.8004 24.5797 29.8919 23.96 29.9883 23.3878C29.9949 23.3486 30.0147 23.3128 30.0445 23.2863C30.0742 23.2598 30.112 23.2443 30.1518 23.2422C30.3851 23.2282 30.5388 23.2163 30.6129 23.2066C33.7818 22.7797 36.7686 22.6009 39.5736 22.67C40.7668 22.6987 42.0389 22.7937 43.39 22.9551C44.0013 23.0284 44.5546 23.1182 45.0499 23.2244C45.4342 23.3075 45.7377 23.1873 45.9606 22.8639C45.9689 22.8521 45.9749 22.839 45.9784 22.8251L46.0895 22.3473C46.0931 22.3312 46.1012 22.3166 46.1127 22.3049C46.1243 22.2932 46.1389 22.285 46.1549 22.281C46.1709 22.2771 46.1878 22.2777 46.2036 22.2828C46.2195 22.2878 46.2336 22.2971 46.2446 22.3095C46.2928 22.3668 46.3853 22.4807 46.5223 22.6512C46.736 22.9173 46.6543 23.2851 46.5296 23.566C46.3357 24.0051 45.9302 23.9726 45.4859 23.8866C44.8152 23.7581 44.1459 23.6613 43.4781 23.5964C40.6801 23.3239 37.8634 23.282 35.0277 23.4706C33.5753 23.5681 32.0936 23.7745 30.704 23.9495C30.672 23.9535 30.6422 23.9679 30.6191 23.9904C30.5961 24.0129 30.581 24.0423 30.5762 24.0742C30.4588 24.8839 30.3111 25.7966 30.1329 26.8124C30.0798 27.1142 30.003 27.4307 29.9024 27.7618C29.7424 28.29 29.6429 28.6005 29.6037 28.6934C29.2401 29.5726 28.6302 30.608 27.838 31.1403C27.2753 31.5186 26.8331 31.7701 26.1802 31.8948C24.804 32.1568 23.5629 31.9294 22.457 31.2126C21.9812 30.9045 21.6197 30.6321 21.2477 30.1888Z" fill="#C0BEC2"/>
        <path d="M28.054 23.6592C26.7721 23.8898 25.5303 24.2401 24.3287 24.7103C23.4202 25.0655 22.4173 25.558 21.9154 26.4268C21.5538 27.0513 21.5916 27.942 22.1857 28.423C22.1915 28.428 22.1987 28.431 22.2063 28.4318C22.2138 28.4326 22.2214 28.431 22.2281 28.4274C22.2348 28.4238 22.2402 28.4182 22.2437 28.4115C22.2472 28.4047 22.2485 28.397 22.2476 28.3895C22.1836 27.8111 22.2256 27.3122 22.6437 26.8679C23.1558 26.323 23.7513 25.9059 24.4304 25.6167C25.5502 25.1382 26.7152 24.7623 27.9251 24.4892C27.6254 26.7914 26.7441 30.0504 23.5962 29.3054C22.8092 29.1188 21.8326 28.6536 21.4438 27.9389C21.1389 27.3783 21.1326 26.6751 21.4354 26.0757C21.9762 25.0058 23.6339 24.3351 24.7217 23.9694C25.7472 23.6243 26.8612 23.3431 28.0635 23.1258C28.0765 23.1234 28.0899 23.1242 28.1025 23.1283C28.1151 23.1324 28.1265 23.1396 28.1356 23.1493C28.1448 23.159 28.1514 23.1708 28.1549 23.1837C28.1584 23.1966 28.1587 23.2102 28.1557 23.2233L28.054 23.6592Z" fill="#F4F4EA"/>
        <path d="M28.0536 23.6592L27.9247 24.4892C26.7148 24.7623 25.5498 25.1382 24.43 25.6167C23.7509 25.906 23.1554 26.323 22.6433 26.8679C22.2252 27.3123 22.1832 27.8111 22.2472 28.3895C22.2481 28.3971 22.2468 28.4047 22.2433 28.4115C22.2398 28.4183 22.2344 28.4238 22.2277 28.4274C22.221 28.4311 22.2134 28.4326 22.2058 28.4318C22.1983 28.431 22.1911 28.428 22.1853 28.4231C21.5912 27.9421 21.5534 27.0513 21.915 26.4268C22.4169 25.5581 23.4198 25.0655 24.3283 24.7103C25.5299 24.2401 26.7717 23.8898 28.0536 23.6592Z" fill="#C0BEC2"/>
    </symbol>

    <symbol id="menu" viewBox="0 0 24 24">
        <path fill="currentColor" d="M2 6a1 1 0 0 1 1-1h18a1 1 0 1 1 0 2H3a1 1 0 0 1-1-1Zm0 6.032a1 1 0 0 1 1-1h18a1 1 0 1 1 0 2H3a1 1 0 0 1-1-1Zm1 5.032a1 1 0 1 0 0 2h18a1 1 0 0 0 0-2H3Z"/>
    </symbol>

    <symbol id="save" viewBox="0 0 16 16">
        <path fill="currentColor" d="M5.008 2H2.282c-.181 0-.245.002-.275.007c-.005.03-.007.094-.007.275v11.436c0 .181.002.245.007.275c.03.005.094.007.275.007h11.436c.181 0 .245-.002.275-.007c.005-.03.007-.094.007-.275V4.62c0-.13-.001-.18-.004-.204a2.654 2.654 0 0 0-.141-.147L11.73 2.145a2.654 2.654 0 0 0-.147-.141A2.654 2.654 0 0 0 11.38 2h-.388c.005.08.008.172.008.282v2.436c0 .446-.046.607-.134.77a.909.909 0 0 1-.378.378c-.163.088-.324.134-.77.134H6.282c-.446 0-.607-.046-.77-.134a.909.909 0 0 1-.378-.378C5.046 5.325 5 5.164 5 4.718V2.282c0-.11.003-.202.008-.282M2.282 1h9.098c.259 0 .348.01.447.032a.87.87 0 0 1 .273.113c.086.054.156.11.338.293l2.124 2.124c.182.182.239.252.293.338a.87.87 0 0 1 .113.273c.023.1.032.188.032.447v9.098c0 .446-.046.607-.134.77a.909.909 0 0 1-.378.378c-.163.088-.324.134-.77.134H2.282c-.446 0-.607-.046-.77-.134a.909.909 0 0 1-.378-.378c-.088-.163-.134-.324-.134-.77V2.282c0-.446.046-.607.134-.77a.909.909 0 0 1 .378-.378c.163-.088.324-.134.77-.134M6 2.282v2.436c0 .181.002.245.007.275c.03.005.094.007.275.007h3.436c.181 0 .245-.002.275-.007c.005-.03.007-.094.007-.275V2.282c0-.181-.002-.245-.007-.275A2.248 2.248 0 0 0 9.718 2H6.282c-.181 0-.245.002-.275.007c-.005.03-.007.094-.007.275M8 12a2 2 0 1 1 0-4a2 2 0 0 1 0 4m0-1a1 1 0 1 0 0-2a1 1 0 0 0 0 2"/>
    </symbol>
</svg>